# xmcd
#
# Track frame offsets: 
#        150
#        12740
#        24904
#        34756
#        45599
#        55514
#        64718
#        73385
#        84045
#        95499
#        101091
#        112157
#        123704
#        132711
#        142085
#        152718
#        162853
#
# Disc length: 2331 seconds
#
# Revision: 0
# Processed by: cddbd v1.5.2PL0 Copyright (c) Steve Scherf et al.
# Submitted via: ExactAudioCopy v1.0b3
#
DISCID=f1091911
DTITLE=Johnny Cash - Together
DYEAR=1900
DGENRE=Country
TTITLE0=Folsom Prison Blues
TTITLE1=I Walk The Line
TTITLE2=Hey Porter
TTITLE3=Cry, Cry, Cry
TTITLE4=Get Rhythm
TTITLE5=Luther Played The Boogie
TTITLE6=Two Timin' Woman
TTITLE7=Wide Open Road
TTITLE8=Port Of Lonely Hearts
TTITLE9=My Treasure
TTITLE10=Mean Eyed Cat
TTITLE11=So Doggone Lonesome
TTITLE12=I Couldn't Keep From Crying
TTITLE13=New Mexico
TTITLE14=Train Of Love
TTITLE15=There You Go
TTITLE16=Goodnight Irene
EXTD=
EXTT0=
EXTT1=
EXTT2=
EXTT3=
EXTT4=
EXTT5=
EXTT6=
EXTT7=
EXTT8=
EXTT9=
EXTT10=
EXTT11=
EXTT12=
EXTT13=
EXTT14=
EXTT15=
EXTT16=
PLAYORDER=
